# xmcd CD database file
#
# Track frame offsets:
#	150
#	16533
#	32791
#	51616
#	65449
#	81281
#	97604
#	111334
#	128989
#	144266
#	162112
#	177840
#	195930
#	207565
#	225148
#
# Disc length: 3203 seconds
#
# Revision: 1
# Processed by: cddbd v1.5.2PL0 Copyright (c) Steve Scherf et al.
# Submitted via: CDex 1.50Beta7
#
DISCID=ba0c810f
DTITLE=FATIMA LEAO - FATIMA LEAO
DYEAR=1900
DGENRE=Country
TTITLE0=MINHA LOUCURA DE AMOR
TTITLE1=AGORA
TTITLE2=PECADO DE AMOR
TTITLE3=PAO DE QUEIJO
TTITLE4=CORAÇAO LARGADO
TTITLE5=ALEM DO INFINITO
TTITLE6=OLHOS VENDADOS
TTITLE7=GOSTOSO SENTIMENTO
TTITLE8=PRA SEMPRE
TTITLE9=FÃ
TTITLE10=OLHOS NOS OLHOS
TTITLE11=PASSOU DA CONTA
TTITLE12=LOGO AGORA
TTITLE13=SO EU SEI DE MIM 
TTITLE14=ZUM DO ZE RICO
EXTD=
EXTT0=
EXTT1=
EXTT2=
EXTT3=
EXTT4=
EXTT5=
EXTT6=
EXTT7=
EXTT8=
EXTT9=
EXTT10=
EXTT11=
EXTT12=
EXTT13=
EXTT14=
PLAYORDER=
